<svg xmlns="http://www.w3.org/2000/svg" width="128" height="128" viewBox="0 0 128 128">
  <defs>
    <filter id="soulGlow" x="-35%" y="-70%" width="170%" height="240%">
      <feGaussianBlur stdDeviation="2.2" result="b"/>
      <feFlood flood-color="#FAE4D5" flood-opacity=".42"/>
      <feComposite in2="b" operator="in"/>
      <feMerge><feMergeNode/><feMergeNode in="SourceGraphic"/></feMerge>
    </filter>
  </defs>
  <g filter="url(#soulGlow)" stroke="#050507" stroke-opacity=".82" stroke-width="3" stroke-linecap="round" stroke-linejoin="round">
    <path d="M8 68 L14 61 L22 62 L30 67 L29 73 L20 78 L12 76 Z" fill="#BFA89C" fill-opacity=".52"/>
    <path d="M14 62 L17 76 M20 63 L23 75 M26 65 L27 73" fill="none" stroke="#E1C8B8" stroke-opacity=".62" stroke-width="2.2"/>
    <path d="M7 68 L10 63 L14 62 L15 76 L11 76 Z" fill="#CDAFA0" fill-opacity=".55"/>
    <path d="M27 56 L38 59 L42 54 L47 58 L43 65 L50 69 L44 74 L47 81 L41 84 L36 78 L27 82 L24 76 L30 70 L23 64 Z" fill="#D8BBAA" fill-opacity=".58"/>
    <path d="M31 61 L38 64 L39 72 L33 76 L29 71 Z" fill="#9D8982" fill-opacity=".48"/>
    <path d="M37 61
             C55 48 77 39 101 34
             C109 32 116 31 121 31
             C118 41 113 50 106 57
             C99 64 90 69 80 72
             C93 73 106 77 118 82
             C101 85 84 86 67 84
             C56 83 46 80 38 75
             L33 69 Z" fill="#FAE4D5" fill-opacity=".64"/>
    <path d="M39 62
             C55 53 72 47 91 43
             C83 49 74 56 67 63
             C62 68 54 72 45 73
             L36 69 Z" fill="#BDA89E" fill-opacity=".50"/>
    <path d="M41 75 C57 81 77 83 97 81 C105 81 112 82 118 82" fill="none" stroke="#FFF5ED" stroke-opacity=".78" stroke-width="3.2"/>
    <path d="M45 58 C61 48 79 42 98 38" fill="none" stroke="#FFF2E8" stroke-opacity=".72" stroke-width="2.1"/>
    <path d="M42 61 L57 57 L65 62 L60 71 L47 74 L39 69 Z" fill="#C9B2A7" fill-opacity=".50"/>
    <path d="M45 63 L55 60 L61 63 L57 69 L48 71 L42 68 Z" fill="#8D7C78" fill-opacity=".48"/>
    <path d="M44 67 C48 62 55 62 59 66 C55 71 48 72 44 67 Z" fill="#EBCDBD" fill-opacity=".68"/>
    <ellipse cx="52" cy="67" rx="2.6" ry="3.1" fill="#FFF0E4" fill-opacity=".82" stroke-width="1.5"/>
    <ellipse cx="52.2" cy="67" rx="0.9" ry="2.1" fill="#20191A" fill-opacity=".84" stroke="none"/>
    <path d="M73 50 L88 44 L82 52 L69 58 Z" fill="#95837F" fill-opacity=".44"/>
    <path d="M88 58 L104 48 L98 58 L84 65 Z" fill="#8F7D79" fill-opacity=".44"/>
  </g>
</svg>